<?xml version="1.0" encoding="UTF-8"?>
<svg id="_레이어_1" data-name="레이어_1" xmlns="http://www.w3.org/2000/svg" version="1.1" viewBox="0 0 999.98 1000">
  <!-- Generator: Adobe Illustrator 29.4.0, SVG Export Plug-In . SVG Version: 2.1.0 Build 152)  -->
  <defs>
    <style>
      .st0 {
        fill: #fff;
      }

      .st1 {
        fill: #00704a;
      }
    </style>
  </defs>
  <path class="st0" d="M999.98,500c0,276.15-223.86,500-499.98,500S0,776.14,0,500,223.86.02,500,.02s499.98,223.83,499.98,499.98"/>
  <g>
    <path class="st0" d="M986.69-510.85c.22-.08.44-.17.65-.25-.22.08-.44.17-.65.25Z"/>
    <path class="st0" d="M992.3-512.95c.29-.1.57-.21.86-.31-.29.1-.57.21-.86.31Z"/>
    <path class="st0" d="M981.11-508.69c.15-.06.29-.12.44-.17-.15.06-.29.12-.44.17Z"/>
    <path class="st0" d="M975.56-506.46c.07-.03.14-.06.21-.08-.07.03-.14.06-.21.08Z"/>
    <path class="st0" d="M1104.49-539.86c1.07-.13,2.14-.26,3.21-.38-1.07.12-2.14.25-3.21.38Z"/>
    <path class="st0" d="M1196.52-542.43c.5.03,1,.07,1.5.1-.5-.03-1-.07-1.5-.1Z"/>
    <path class="st0" d="M1215.49-540.88c.4.04.8.09,1.2.13-.4-.04-.8-.09-1.2-.13Z"/>
    <path class="st0" d="M1202.86-541.99c.47.04.95.08,1.42.12-.47-.04-.95-.08-1.42-.12Z"/>
    <path class="st0" d="M1209.18-541.47c.44.04.88.08,1.32.12-.44-.04-.88-.08-1.32-.12Z"/>
    <path class="st0" d="M1221.78-540.2c.37.04.74.09,1.1.13-.37-.04-.74-.09-1.1-.13Z"/>
    <path class="st0" d="M1529.66,167.64c-26.86,0-57.51-10.47-83.19-33.88,8.31-47.43-65.32-95.72-65.32-130.48,0-37.69,19.11-58.59,19.11-109.44,0-37.74-18.33-78.69-45.94-106.68-5.38-5.44-10.88-9.83-17.17-13.78,25.4,31.39,44.92,68.69,44.92,111.85,0,47.9-22.28,73.19-22.28,117.42s64.63,82.44,64.63,127.97c0,17.97-5.71,35.48-24.6,69.88,29.02,28.99,66.84,44.78,91.22,44.78,7.92,0,12.17-2.37,15.02-8.59,2.42-5.39,4.73-10.83,6.93-16.32,26.09,1.01,38.14,24.65,52.57,34.29,5.4-7.25,10.61-14.65,15.62-22.2-15.84-8.68-29.66-34.14-59.66-35.73,3.1-9.59,5.82-19.3,8.15-29.1Z"/>
    <path class="st0" d="M1228.04-539.45c.33.04.66.09.99.13-.33-.04-.66-.09-.99-.13Z"/>
    <path class="st0" d="M1088.27,276.61c0-54.14-63.09-94.98-63.09-146s58.81-68.8,58.81-130.95c0-52.73-43.79-96.91-43.79-151.3,0-44.26,12.65-74.13,36.33-103.67,2.21-2.79-.36-5.61-3.53-3.29-.72.52-1.41,1.08-2.13,1.6-33.41,25.84-56.3,67.53-56.3,113.86,0,59.47,38.13,89.29,38.13,143.1s-62.12,78.22-62.12,130.65,61.1,94.23,61.1,142.88c0,44.36-58.1,100.41-51.9,154.8,12.76,4.45,25.75,8.41,38.95,11.83-9.83-57.86,49.52-113.43,49.52-163.51Z"/>
    <path class="st0" d="M1498.66,251.9c-3.4,6.68-7.1,13.25-10.91,19.71,16.38,4.46,27.68,20.89,36.37,31.82,5.59-5.79,11.04-11.71,16.34-17.76-9.72-10.83-22.78-28.76-41.81-33.77Z"/>
    <path class="st0" d="M1234.29-538.61c.29.04.58.08.87.13-.29-.04-.58-.08-.87-.13Z"/>
    <path class="st0" d="M1535.93,133.68c-1.33,9.3-2.93,18.58-4.92,27.69,37.41-2.64,45.58,31.64,72.19,34.66,4.9-8.94,9.53-18.04,13.88-27.31-28.21-1.75-38.07-37.93-81.16-35.04Z"/>
    <path class="st0" d="M1155.28-543.35c.97-.02,1.94-.04,2.9-.05-.97.01-1.94.04-2.9.05Z"/>
    <path class="st0" d="M1164.57-543.44c-.29,0-.57,0-.86,0,.29,0,.58,0,.87,0,0,0,0,0,0,0Z"/>
    <path class="st0" d="M1538.97,60.54c.39,6.96.61,13.94.61,21.04,0,3.89-.11,7.79-.22,11.68,41.38-.5,54.95,37.6,94.23,36.07,3.9-10.58,7.46-21.33,10.65-32.24-41.85,3.97-56.69-37.65-105.27-36.55Z"/>
    <path class="st0" d="M1148.51-543.18c1.1-.03,2.2-.08,3.3-.1-1.1.03-2.2.07-3.3.1Z"/>
    <path class="st0" d="M1177.41-543.28c.48.01.96.03,1.45.04-.48-.01-.96-.03-1.45-.04Z"/>
    <path class="st0" d="M1246.73-536.72c.21.03.41.07.62.1-.21-.03-.41-.07-.62-.1Z"/>
    <path class="st0" d="M1171-543.4c.35,0,.7.01,1.06.02-.35,0-.7-.02-1.06-.02Z"/>
    <path class="st0" d="M1183.8-543.08c.51.02,1.03.05,1.54.07-.51-.02-1.03-.05-1.54-.07Z"/>
    <path class="st0" d="M1190.16-542.8c.53.03,1.05.06,1.58.09-.53-.03-1.05-.06-1.58-.09Z"/>
    <path class="st0" d="M944.76,228.54c18.63,58.77-50.21,93.52-56.81,144.07,6.95,4.63,14.02,9.09,21.21,13.37,3.93-42.19,49.04-75.93,49.04-118.46,0-15.6-7.34-28.63-13.45-38.98Z"/>
    <path class="st0" d="M816.15,220.37c2.18,5.49,4.5,10.93,6.93,16.32,2.84,6.21,7.1,8.59,14.99,8.59,24.41,0,62.23-15.79,91.25-44.78-18.91-34.4-24.63-51.91-24.63-69.88,0-45.53,64.69-83.79,64.69-127.97s-22.31-69.52-22.31-117.42c0-43.15,19.52-80.45,44.92-111.85-6.29,3.95-11.76,8.34-17.15,13.78-27.67,28-45.97,68.94-45.97,106.68,0,50.86,19.05,71.76,19.05,109.44,0,34.76-73.58,83.05-65.24,130.48-25.7,23.41-56.38,33.88-83.19,33.88,2.33,9.8,5.05,19.51,8.15,29.1-30.05,1.59-43.9,27.05-59.69,35.73,5.01,7.54,10.21,14.94,15.61,22.18,14.42-9.65,26.45-33.27,52.58-34.28Z"/>
    <path class="st0" d="M1277.45,273.49c0-48.65,61.1-90.39,61.1-142.88S1276.43,53.78,1276.43-.03s38.16-83.63,38.16-143.1c0-46.33-22.89-88.02-56.35-113.86-.69-.53-1.38-1.08-2.13-1.6-3.15-2.32-5.69.5-3.48,3.28,23.64,29.54,36.31,59.42,36.31,103.67,0,54.39-43.79,98.57-43.79,151.3,0,62.15,58.81,79.96,58.81,130.95s-63.06,91.86-63.06,146c0,50.08,59.34,105.65,49.53,163.5,13.18-3.42,26.16-7.37,38.89-11.81,6.26-54.39-51.87-110.45-51.87-154.81Z"/>
    <path class="st0" d="M841.36,271.61c-3.82-6.46-7.45-13.04-10.88-19.71-19.03,5.01-32.09,22.95-41.81,33.77,5.31,6.05,10.75,11.97,16.34,17.76,8.72-10.94,19.97-27.35,36.35-31.82Z"/>
    <path class="st0" d="M798.13,161.37c-2-9.17-3.65-18.4-4.94-27.69-43.06-2.89-52.97,33.29-81.13,35.04,4.35,9.26,8.99,18.37,13.88,27.31,26.59-3.02,34.78-37.3,72.19-34.66Z"/>
    <path class="st0" d="M1206.6,277.3c0-51.13,65.27-96.72,65.27-146.69,0-47.08-46.85-62.48-53.01-110.71-.85-6.57-6.13-11.46-13.42-10.22-9.53,1.74-21.7,8.01-40.86,8.01s-31.36-6.27-40.92-8.01c-7.23-1.24-12.54,3.65-13.39,10.22-6.13,48.23-53.01,63.64-53.01,110.71,0,49.97,65.27,95.55,65.27,146.69,0,47.14-58.24,98.86-47.39,170.81,29.01,5.24,58.9,7.98,89.42,7.98s60.41-2.74,89.43-7.98c10.82-71.95-47.39-123.68-47.39-170.81Z"/>
    <path class="st0" d="M1525.82-19.06c3.48,12.29,6.27,24.85,8.42,37.63,47.76-.03,67.05,44.48,120.01,38.1,2.49-12.22,4.54-24.6,6.12-37.13-56.39,9.18-76.68-41.12-134.55-38.61Z"/>
    <path class="st0" d="M958.98,130.61c0-48.65,63.25-77.69,63.25-129.85s-31.42-81.83-31.42-135.12c0-47.46,16.65-78.77,45.42-113.23-6.41,3.28-11.71,7.1-17.12,11.84-30.48,26.86-50.22,68.91-50.22,110.44,0,56.68,27.44,82.14,27.44,126.37s-64.47,79.16-64.47,129.54,55.91,93.29,55.91,135.92c0,38.17-47.81,88.91-49.73,135.39,8.88,4.53,17.92,8.79,27.1,12.79,1.07-53.76,52.69-99.08,52.69-144.46,0-49.95-58.86-90.97-58.86-139.65Z"/>
    <path class="st0" d="M1397.27,130.61c0-50.39-64.47-85.28-64.47-129.54s27.39-69.69,27.39-126.37c0-41.53-19.69-83.57-50.19-110.44-5.38-4.75-10.66-8.56-17.06-11.85,28.74,34.46,45.39,65.77,45.39,113.23,0,53.29-31.39,82.88-31.39,135.12s63.25,81.2,63.25,129.85-58.92,89.7-58.92,139.65c0,45.38,51.66,90.71,52.69,144.47,9.2-4.01,18.25-8.28,27.16-12.82-1.93-46.48-49.76-97.21-49.76-135.38,0-42.63,55.91-85.51,55.91-135.92Z"/>
    <path class="st0" d="M1252.92-535.66c.16.03.32.06.48.09-.16-.03-.32-.06-.48-.09Z"/>
    <path class="st0" d="M874.52,318.83c-4.44-5.3-8.71-10.73-12.81-16.29-11.04,6.69-20.88,19.14-27.26,29.01,5.56,4.89,11.22,9.67,16.99,14.32,5.44-9.38,13.72-20.67,23.08-27.03Z"/>
    <path class="st0" d="M1265.24-533.3c.05.01.11.02.16.03-.05-.01-.11-.02-.16-.03Z"/>
    <path class="st0" d="M1271.38-532s0,0,0,0c0,0,0,0,0,0Z"/>
    <path class="st0" d="M789.76,93.26c-.11-3.89-.17-7.79-.17-11.68,0-7.1.19-14.08.58-21.04-48.57-1.1-63.41,40.5-105.27,36.55,3.19,10.9,6.75,21.65,10.65,32.23,39.3,1.59,52.82-36.56,94.2-36.07Z"/>
    <path class="st0" d="M1259.09-534.51c.11.02.22.04.33.07-.11-.02-.22-.04-.33-.07Z"/>
    <path class="st0" d="M1467.43,302.54c-4.1,5.57-8.38,11-12.84,16.29,9.39,6.36,17.68,17.67,23.09,27.05,5.78-4.65,11.45-9.43,17.01-14.33-6.39-9.86-16.25-22.31-27.27-29.01Z"/>
    <path class="st0" d="M794.87,18.58c2.13-12.69,4.95-25.25,8.45-37.63-57.9-2.51-78.16,47.79-134.55,38.61,1.58,12.53,3.63,24.91,6.12,37.13,52.94,6.38,72.25-38.13,119.99-38.1Z"/>
    <path class="st0" d="M815.66-56.14c5.63-14.24,12.18-28.1,19.6-41.5-75-13.16-100.53,49.46-170.26,39.97-.13,4.65-.2,9.31-.2,13.99,0,9.29.26,18.51.76,27.67,65.61,7.19,90.28-46.76,150.1-40.14Z"/>
    <path class="st0" d="M1384.38,228.54c-6.1,10.35-13.45,23.39-13.45,38.98,0,42.54,45.1,76.27,49.02,118.47,7.2-4.29,14.28-8.75,21.24-13.39-6.6-50.55-75.44-85.31-56.81-144.07Z"/>
    <path class="st0" d="M1493.85-97.63c7.37,13.31,13.97,27.17,19.63,41.5,59.81-6.62,84.46,47.33,150.1,40.14.5-9.16.76-18.39.76-27.67,0-4.68-.07-9.34-.2-13.99-69.73,9.49-95.26-53.13-170.29-39.97Z"/>
    <path class="st0" d="M1240.52-537.71c.25.04.5.08.74.12-.25-.04-.5-.08-.74-.12Z"/>
    <path class="st0" d="M1067.96-534.1c.91-.18,1.82-.36,2.73-.53-.91.17-1.82.35-2.73.53Z"/>
    <path class="st0" d="M1073.98-535.24c.94-.17,1.88-.35,2.82-.51-.94.17-1.88.34-2.82.51Z"/>
    <path class="st0" d="M1076.15-173.14c9.72-9.75,30.23-9.36,51.55-1.49.91-10.6-18.03-22.14-37-22.14-13.78,0-20.62,4.64-20.62,11.35,0,4.33,1.46,8.12,6.07,12.29Z"/>
    <path class="st0" d="M1061.98-532.89c.87-.18,1.74-.36,2.61-.54-.87.18-1.74.36-2.61.54Z"/>
    <path class="st0" d="M1650.53-97.52c-53.78-57.09-97.52-122.09-91.75-196.91.36-4.39-3.62-6.9-7.34-4.28-27.39,18.99-46.6,50.44-52.51,85.86-38.07-24.46-82.63-27.94-119.44-12.87,37.94,26.59,70.65,59.95,96.49,98.4,71.92-24.93,119.11,46.44,174.55,29.79Z"/>
    <path class="st0" d="M1080.04-536.31c.97-.16,1.93-.33,2.9-.49-.97.16-1.94.33-2.9.49Z"/>
    <path class="st0" d="M1020.82-522.45c.57-.17,1.14-.34,1.71-.51-.57.17-1.14.34-1.71.51Z"/>
    <path class="st0" d="M1056.02-531.61c.83-.18,1.66-.37,2.49-.55-.83.18-1.66.37-2.49.55Z"/>
    <path class="st0" d="M1026.61-524.15c.62-.18,1.25-.36,1.87-.53-.62.18-1.25.36-1.87.53Z"/>
    <path class="st0" d="M1395.98-348.19c-36.64,2.6-68.47,15.19-94.2,36.14,10.93-31.01,24.82-58.09,42.38-84.4-46.6,4.94-85.64,22.03-114.11,51.16l-22.28-58.39,49.48-43.71-66.23-4.67-26.42-61.57-26.42,61.57-66.24,4.67,49.45,43.71-22.28,58.39c-28.47-29.13-67.48-46.22-114.11-51.16,17.53,26.31,31.45,53.4,42.38,84.4-25.73-20.96-57.56-33.54-94.23-36.14,21.98,28.24,41.5,58.4,55.91,90.75,1.63,3.67,5.14,4.86,8.95,2.98,50.17-24.93,106.76-38.98,166.59-38.98s116.37,14.05,166.59,38.98c3.81,1.88,7.26.69,8.89-2.98,14.44-32.36,33.9-62.51,55.91-90.75h0ZM1214.86-327.26c-4.39-.8-25.51-4.33-50.28-4.33s-45.89,3.53-50.3,4.33c-2.48.41-3.45-2.01-1.55-3.45,1.74-1.27,51.85-39.43,51.85-39.43,0,0,50.08,38.15,51.8,39.43,1.96,1.44.99,3.86-1.52,3.45Z"/>
    <path class="st0" d="M1038.28-527.34c.71-.19,1.43-.37,2.14-.55-.71.18-1.43.37-2.14.55Z"/>
    <path class="st0" d="M1086.11-537.31c1-.16,2-.32,3-.47-1,.15-2,.31-3,.47Z"/>
    <path class="st0" d="M1044.16-528.83c.76-.19,1.51-.38,2.27-.56-.76.18-1.51.37-2.27.56Z"/>
    <path class="st0" d="M1050.08-530.26c.79-.19,1.59-.37,2.38-.55-.79.18-1.59.37-2.38.55Z"/>
    <path class="st0" d="M997.94-514.99c.35-.12.69-.24,1.04-.37-.35.12-.69.24-1.04.37Z"/>
    <path class="st0" d="M1142-542.93c1.15-.05,2.3-.11,3.45-.15-1.15.04-2.3.1-3.45.15Z"/>
    <path class="st0" d="M1032.43-525.78c.67-.18,1.34-.37,2.02-.55-.67.18-1.34.37-2.02.55Z"/>
    <path class="st0" d="M1123.08-541.73c1.14-.09,2.27-.19,3.41-.28-1.14.09-2.28.18-3.41.28Z"/>
    <path class="st0" d="M1238.47-196.78c-11.13,0-24.16,3.42-32.39,12.53-.88,2.48-.88,6.18.36,8.67,20.15-6.93,37.99-7.18,46.55,2.43,4.58-4.17,6.07-7.95,6.07-12.29,0-6.71-6.82-11.35-20.6-11.35Z"/>
    <path class="st0" d="M1009.31-518.85c.47-.15.94-.31,1.4-.46-.47.15-.94.3-1.4.46Z"/>
    <path class="st0" d="M1003.61-516.95c.41-.14.82-.28,1.23-.42-.41.14-.82.28-1.23.42Z"/>
    <path class="st0" d="M1116.85-541.18c1.12-.11,2.24-.22,3.37-.32-1.12.1-2.25.21-3.37.32Z"/>
    <path class="st0" d="M1135.63-542.61c1.16-.07,2.33-.14,3.5-.2-1.17.06-2.33.13-3.5.2Z"/>
    <path class="st0" d="M1129.34-542.21c1.15-.08,2.31-.16,3.46-.24-1.16.07-2.31.16-3.46.24Z"/>
    <path class="st0" d="M830.18-212.85c-5.88-35.42-25.07-66.87-52.46-85.86-3.81-2.62-7.73-.11-7.4,4.28,5.8,74.82-37.96,139.81-91.74,196.91,55.44,16.65,102.65-54.72,174.52-29.79,25.87-38.45,58.6-71.8,96.55-98.4-36.8-15.07-81.36-11.6-119.46,12.87Z"/>
    <path class="st0" d="M1164.58-270.96c-46.41,0-85.28,26.26-95.47,60.16-.8,2.6.25,4.28,3.29,2.93,8.34-3.75,17.84-5.58,28.16-5.58,18.94,0,35.62,6.99,45.47,19.05,4.39,14.41,4.75,35.26-.19,47.16-7.79-1.74-10.6-7.79-18.19-7.79s-13.53,5.36-26.42,5.36-14.44-6.1-22.89-6.1c-9.99,0-11.84,10.3-11.84,21.89,0,51.71,47.54,122.86,98.1,122.86s98.1-71.15,98.1-122.86c0-11.6-2.4-21.54-12.84-22.89-5.19,3.73-9.97,7.1-21.89,7.1-12.92,0-16.48-5.36-24.1-5.36-9.17,0-8.25,19.36-19.16,20.46-7.23-17.48-7.62-39.87-1.57-59.83,9.86-12.07,26.56-19.05,45.47-19.05,10.3,0,19.91,1.82,28.16,5.58,3.01,1.35,4.06-.33,3.31-2.93-10.22-33.9-49.06-60.16-95.47-60.16ZM1200.86-79.69s2.59.97,3.31,3.29c-10.49,8.09-17.75,26.42-39.59,26.42s-29.13-18.33-39.65-26.42c.72-2.32,3.34-3.29,3.34-3.29,0,0,13.75,3.23,36.3,3.23s36.28-3.23,36.28-3.23ZM1189.4-106.8c-.08,1.46-.64,2.76-1.68,3.92-8.86,1.35-12.87,6.29-23.14,6.29s-14.27-4.94-23.16-6.29c-1.05-1.16-1.57-2.46-1.68-3.92,1.66-2.93,9.33-6.02,13.28-6.05,4.14-.03,5.49,2.26,11.57,2.26h0c6.07,0,7.43-2.29,11.57-2.26,3.95.03,11.6,3.12,13.25,6.05Z"/>
    <path class="st0" d="M1092.2-538.23c1.03-.15,2.05-.3,3.08-.44-1.03.14-2.05.29-3.08.44Z"/>
    <path class="st0" d="M1098.34-539.08c1.05-.14,2.09-.28,3.14-.41-1.05.13-2.09.27-3.14.41Z"/>
    <path class="st0" d="M1110.66-540.56c1.1-.12,2.2-.24,3.3-.35-1.1.11-2.2.23-3.3.35Z"/>
    <path class="st0" d="M1015.05-520.68c.52-.16,1.04-.33,1.56-.49-.52.16-1.04.32-1.56.49Z"/>
    <polygon class="st1" points="1663.81 -16.02 1663.81 -16.02 1663.81 -16.02 1663.81 -16.02"/>
    <path class="st1" d="M1513.48-56.14c-5.66-14.33-12.26-28.19-19.63-41.5,75.03-13.16,100.56,49.46,170.29,39.97.07,0,.13-.02.2-.02-6.49-233.14-172.61-426.37-392.96-474.32,0,0,0,0,0,0-1.99-.43-3.97-.85-5.97-1.26-.05-.01-.11-.02-.16-.03-1.94-.4-3.88-.78-5.82-1.15-.11-.02-.22-.04-.33-.07-1.89-.36-3.79-.71-5.69-1.05-.16-.03-.32-.06-.48-.09-1.85-.33-3.71-.65-5.57-.96-.21-.03-.41-.07-.62-.1-1.82-.3-3.64-.59-5.46-.87-.25-.04-.5-.08-.74-.12-1.78-.27-3.57-.53-5.36-.78-.29-.04-.58-.08-.87-.13-1.75-.24-3.5-.48-5.26-.7-.33-.04-.66-.09-.99-.13-1.72-.22-3.44-.42-5.16-.62-.37-.04-.74-.09-1.1-.13-1.69-.19-3.39-.37-5.08-.55-.4-.04-.8-.09-1.2-.13-1.66-.17-3.32-.32-4.99-.47-.44-.04-.88-.08-1.32-.12-1.63-.14-3.27-.28-4.9-.4-.47-.04-.95-.08-1.42-.12-1.61-.12-3.22-.23-4.84-.34-.5-.03-1-.07-1.5-.1-1.59-.1-3.19-.19-4.78-.27-.53-.03-1.05-.06-1.58-.09-1.61-.08-3.22-.15-4.83-.21-.51-.02-1.03-.05-1.54-.07-1.65-.06-3.29-.11-4.94-.16-.48-.01-.96-.03-1.45-.04-1.78-.04-3.56-.08-5.35-.1-.35,0-.7-.02-1.06-.02-2.14-.03-4.27-.04-6.42-.04,0,0,0,0,0,0-.29,0-.58,0-.87,0-1.84,0-3.69.01-5.53.03-.97.01-1.94.04-2.9.05-1.16.02-2.31.04-3.47.07-1.1.03-2.2.07-3.3.1-1.02.03-2.04.06-3.05.1-1.15.04-2.3.1-3.45.15-.96.04-1.92.08-2.88.13-1.17.06-2.33.13-3.5.2-.94.05-1.89.1-2.83.16-1.16.07-2.31.16-3.46.24-.95.07-1.9.13-2.84.2-1.14.09-2.28.18-3.41.28-.96.08-1.91.15-2.87.24-1.12.1-2.25.21-3.37.32-.96.09-1.93.18-2.89.28-1.1.11-2.2.23-3.3.35-.98.11-1.97.21-2.95.32-1.07.12-2.14.25-3.21.38-1,.12-2.01.24-3.01.36-1.05.13-2.09.27-3.14.41-1.02.14-2.04.27-3.06.41-1.03.14-2.05.29-3.08.44-1.03.15-2.07.3-3.1.45-1,.15-2,.31-3,.47-1.06.17-2.11.33-3.17.5-.97.16-1.94.33-2.9.49-1.08.18-2.16.37-3.23.56-.94.17-1.88.34-2.82.51-1.1.2-2.2.4-3.29.61-.91.17-1.82.35-2.73.53-1.12.22-2.25.44-3.37.67-.87.18-1.74.36-2.61.54-1.16.24-2.31.48-3.47.73-.83.18-1.66.37-2.49.55-1.19.26-2.38.53-3.56.8-.79.18-1.59.37-2.38.55-1.22.28-2.43.57-3.64.87-.76.18-1.51.37-2.27.56-1.25.31-2.5.62-3.74.94-.71.18-1.43.37-2.14.55-1.28.33-2.56.67-3.84,1.01-.67.18-1.34.37-2.02.55-1.32.36-2.63.72-3.95,1.09-.62.18-1.25.36-1.87.53-1.36.39-2.72.78-4.07,1.18-.57.17-1.14.34-1.71.51-1.4.42-2.81.85-4.21,1.28-.52.16-1.04.32-1.56.49-1.45.45-2.89.91-4.33,1.38-.47.15-.94.3-1.4.46-1.49.49-2.99.98-4.47,1.48-.41.14-.82.28-1.23.42-1.55.53-3.09,1.06-4.63,1.6-.35.12-.69.24-1.04.37-1.6.57-3.2,1.14-4.79,1.72-.29.1-.57.21-.86.31-1.66.61-3.31,1.22-4.96,1.85-.22.08-.44.17-.65.25-1.72.65-3.43,1.32-5.14,1.99-.15.06-.29.12-.44.17-1.78.7-3.56,1.42-5.34,2.14-.07.03-.14.06-.21.08-178.27,72.86-305.08,245.67-310.77,448.78.07,0,.13.02.2.02,69.73,9.49,95.26-53.13,170.26-39.97-7.42,13.39-13.97,27.26-19.6,41.5-59.81-6.62-84.48,47.33-150.1,40.14-.08,0-.16-.01-.24-.02.66,11.96,1.68,23.8,3.2,35.53.08.01.16.02.24.04,56.39,9.18,76.65-41.11,134.55-38.61-3.5,12.38-6.32,24.94-8.45,37.63-47.73-.03-67.05,44.48-119.99,38.1-.09-.01-.18-.02-.28-.03,2.79,13.69,6.16,27.17,10.02,40.42.09,0,.19.01.28.02,41.86,3.95,56.7-37.65,105.27-36.55-.39,6.96-.58,13.94-.58,21.04,0,3.89.06,7.79.17,11.68-41.38-.5-54.9,37.66-94.2,36.07-.11,0-.22,0-.33-.01,4.97,13.42,10.46,26.59,16.54,39.43.1,0,.19-.02.29-.02,28.16-1.75,38.07-37.93,81.13-35.04,1.3,9.29,2.94,18.53,4.94,27.69-37.41-2.64-45.6,31.64-72.19,34.66-.11.01-.22.04-.34.05,6.85,12.56,14.25,24.71,22.09,36.55.09-.05.19-.11.28-.16,15.79-8.68,29.63-34.14,59.69-35.73-3.1-9.59-5.82-19.3-8.15-29.1,26.81,0,57.48-10.46,83.19-33.88-8.34-47.43,65.24-95.72,65.24-130.48,0-37.69-19.05-58.59-19.05-109.44,0-37.74,18.3-78.69,45.97-106.68,5.38-5.44,10.85-9.83,17.15-13.78-25.4,31.39-44.92,68.69-44.92,111.85,0,47.9,22.31,73.19,22.31,117.42s-64.69,82.44-64.69,127.97c0,17.97,5.72,35.48,24.63,69.88-29.02,28.99-66.84,44.78-91.25,44.78-7.9,0-12.15-2.37-14.99-8.59-2.43-5.38-4.75-10.82-6.93-16.32-26.14,1.01-38.16,24.63-52.58,34.28-.1.07-.19.14-.29.2,7.97,10.69,16.36,21.06,25.15,31.09.08-.09.16-.18.24-.27,9.72-10.82,22.78-28.76,41.81-33.77,3.43,6.68,7.06,13.25,10.88,19.71-16.38,4.47-27.62,20.88-36.35,31.82-.07.09-.14.18-.21.26,9.41,9.8,19.24,19.16,29.43,28.16.07-.1.14-.21.21-.31,6.38-9.86,16.23-22.31,27.26-29.01,4.1,5.56,8.37,10.99,12.81,16.29-9.36,6.36-17.64,17.65-23.08,27.03-.06.11-.13.22-.19.33,11.79,9.47,23.99,18.47,36.64,26.89.02-.15.05-.31.07-.46,6.6-50.55,75.44-85.31,56.81-144.07,6.1,10.35,13.45,23.39,13.45,38.98,0,42.53-45.11,76.26-49.04,118.46-.01.15-.03.3-.05.45,9.47,5.61,19.11,10.93,28.91,15.93,0-.15.02-.3.02-.45,1.92-46.48,49.73-97.22,49.73-135.39,0-42.63-55.91-85.51-55.91-135.92S996.33,45.33,996.33,1.07s-27.44-69.69-27.44-126.37c0-41.52,19.74-83.57,50.22-110.44,5.41-4.75,10.71-8.56,17.12-11.84-28.77,34.46-45.42,65.77-45.42,113.23,0,53.29,31.42,82.88,31.42,135.12s-63.25,81.2-63.25,129.85,58.86,89.7,58.86,139.65c0,45.38-51.62,90.7-52.69,144.46,0,.15-.01.29-.01.44,11.4,4.95,22.97,9.48,34.71,13.58-.02-.15-.03-.3-.05-.45-6.2-54.39,51.9-110.44,51.9-154.8,0-48.65-61.1-90.39-61.1-142.88S1052.71,53.78,1052.71-.03s-38.13-83.63-38.13-143.1c0-46.33,22.89-88.02,56.3-113.86.72-.52,1.41-1.08,2.13-1.6,3.17-2.32,5.74.49,3.53,3.29-23.69,29.54-36.33,59.41-36.33,103.67,0,54.39,43.79,98.57,43.79,151.3,0,62.15-58.81,79.96-58.81,130.95s63.09,91.86,63.09,146c0,50.08-59.35,105.65-49.52,163.51.03.16.05.33.08.49,12.03,3.11,24.16,5.77,36.39,7.98-.02-.16-.04-.31-.07-.47-10.85-71.95,47.39-123.68,47.39-170.81,0-51.13-65.27-96.72-65.27-146.69,0-47.07,46.88-62.48,53.01-110.71.85-6.57,6.16-11.46,13.39-10.22,9.55,1.74,21.76,8.01,40.92,8.01s31.34-6.27,40.86-8.01c7.29-1.24,12.56,3.65,13.42,10.22,6.16,48.23,53.01,63.64,53.01,110.71,0,49.97-65.27,95.55-65.27,146.69,0,47.14,58.21,98.86,47.39,170.81-.02.16-.04.32-.07.47,12.23-2.22,24.38-4.88,36.42-7.98.03-.17.05-.33.08-.5,9.82-57.86-49.53-113.42-49.53-163.5,0-54.14,63.06-94.98,63.06-146s-58.81-68.8-58.81-130.95c0-52.73,43.79-96.91,43.79-151.3,0-44.26-12.67-74.13-36.31-103.67-2.21-2.79.33-5.6,3.48-3.28.75.52,1.44,1.08,2.13,1.6,33.46,25.84,56.35,67.53,56.35,113.86,0,59.47-38.16,89.29-38.16,143.1s62.12,78.22,62.12,130.65-61.1,94.23-61.1,142.88c0,44.36,58.13,100.42,51.87,154.81-.02.15-.03.29-.05.44,11.73-4.1,23.31-8.63,34.71-13.58,0-.14,0-.28-.01-.42-1.04-53.76-52.69-99.09-52.69-144.47,0-49.94,58.92-90.97,58.92-139.65s-63.25-77.69-63.25-129.85,31.39-81.83,31.39-135.12c0-47.46-16.65-78.77-45.39-113.23,6.41,3.29,11.68,7.1,17.06,11.85,30.51,26.86,50.19,68.91,50.19,110.44,0,56.68-27.39,82.14-27.39,126.37s64.47,79.16,64.47,129.54-55.91,93.29-55.91,135.92c0,38.17,47.83,88.9,49.76,135.38,0,.15.02.31.02.46,9.78-5.01,19.4-10.32,28.85-15.93-.01-.15-.03-.29-.04-.44-3.92-42.2-49.02-75.94-49.02-118.47,0-15.6,7.34-28.63,13.45-38.98-18.63,58.77,50.21,93.52,56.81,144.07.02.15.05.31.07.46,12.6-8.42,24.81-17.39,36.61-26.89-.06-.1-.12-.21-.18-.31-5.42-9.38-13.7-20.69-23.09-27.05,4.45-5.29,8.74-10.72,12.84-16.29,11.01,6.69,20.88,19.14,27.27,29.01.07.1.14.21.21.32,10.19-9,20.02-18.36,29.43-28.16-.07-.09-.14-.18-.21-.26-8.7-10.93-19.99-27.35-36.37-31.82,3.81-6.46,7.51-13.03,10.91-19.71,19.03,5.01,32.09,22.95,41.81,33.77.08.09.16.18.24.27,8.78-10.02,17.17-20.4,25.13-31.09-.09-.06-.18-.13-.27-.19-14.43-9.64-26.48-33.28-52.57-34.29-2.2,5.49-4.51,10.93-6.93,16.32-2.84,6.21-7.1,8.59-15.02,8.59-24.38,0-62.2-15.79-91.22-44.78,18.89-34.4,24.6-51.91,24.6-69.88,0-45.53-64.63-83.8-64.63-127.97s22.28-69.52,22.28-117.42c0-43.15-19.52-80.45-44.92-111.85,6.3,3.95,11.79,8.34,17.17,13.78,27.61,28,45.94,68.94,45.94,106.68,0,50.86-19.11,71.76-19.11,109.44,0,34.76,73.63,83.05,65.32,130.48,25.68,23.41,56.32,33.88,83.19,33.88-2.33,9.8-5.05,19.51-8.15,29.1,30,1.59,43.82,27.05,59.66,35.73.09.05.19.11.28.16,7.87-11.84,15.24-23.99,22.09-36.55-.12-.01-.22-.04-.34-.05-26.62-3.02-34.78-37.3-72.19-34.66,1.99-9.11,3.59-18.39,4.92-27.69,43.09-2.89,52.94,33.29,81.16,35.04.1,0,.19.02.29.02,6.05-12.84,11.6-26.01,16.54-39.43-.11,0-.22,0-.33,0-39.28,1.53-52.85-36.56-94.23-36.07.11-3.89.22-7.79.22-11.68,0-7.1-.22-14.08-.61-21.04,48.58-1.1,63.42,40.52,105.27,36.55.09,0,.17-.01.25-.02,3.95-13.32,7.3-26.8,10.05-40.42-.09.01-.19.02-.28.03-52.96,6.38-72.25-38.13-120.01-38.1-2.15-12.78-4.94-25.34-8.42-37.63,57.87-2.51,78.16,47.78,134.55,38.61.08-.01.16-.02.24-.04,1.49-11.73,2.54-23.58,3.2-35.53-.08,0-.16.01-.24.02-65.64,7.19-90.28-46.76-150.1-40.14ZM853.1-127.31c-71.87-24.93-119.08,46.44-174.52,29.79,53.78-57.1,97.54-122.09,91.74-196.91-.33-4.39,3.59-6.9,7.4-4.28,27.39,18.99,46.58,50.44,52.46,85.86,38.1-24.46,82.66-27.94,119.46-12.87-37.95,26.59-70.68,59.95-96.55,98.4ZM1260.06-210.8c.74,2.6-.3,4.28-3.31,2.93-8.26-3.75-17.86-5.58-28.16-5.58-18.91,0-35.62,6.98-45.47,19.05-6.05,19.96-5.66,42.35,1.57,59.83,10.91-1.1,9.99-20.46,19.16-20.46,7.62,0,11.18,5.36,24.1,5.36,11.93,0,16.7-3.37,21.89-7.1,10.44,1.35,12.84,11.29,12.84,22.89,0,51.71-47.54,122.86-98.1,122.86s-98.1-71.15-98.1-122.86c0-11.6,1.85-21.89,11.84-21.89,8.45,0,9.97,6.1,22.89,6.1s18.8-5.36,26.42-5.36,10.41,6.05,18.19,7.79c4.94-11.9,4.58-32.74.19-47.16-9.86-12.06-26.53-19.05-45.47-19.05-10.33,0-19.82,1.82-28.16,5.58-3.04,1.35-4.09-.33-3.29-2.93,10.19-33.9,49.06-60.16,95.47-60.16s85.26,26.26,95.47,60.16ZM1259.06-185.43c0,4.33-1.49,8.12-6.07,12.29-8.56-9.61-26.4-9.36-46.55-2.43-1.24-2.49-1.24-6.19-.36-8.67,8.23-9.11,21.26-12.53,32.39-12.53,13.78,0,20.6,4.64,20.6,11.35ZM1070.08-185.43c0-6.71,6.85-11.35,20.62-11.35,18.97,0,37.91,11.54,37,22.14-21.31-7.87-41.83-8.26-51.55,1.49-4.61-4.17-6.07-7.95-6.07-12.29ZM1340.07-257.44c-1.63,3.67-5.08,4.86-8.89,2.98-50.22-24.93-106.76-38.98-166.59-38.98s-116.43,14.05-166.59,38.98c-3.81,1.88-7.32.69-8.95-2.98-14.41-32.36-33.93-62.51-55.91-90.75,36.67,2.6,68.5,15.19,94.23,36.14-10.93-31.01-24.85-58.09-42.38-84.4,46.63,4.94,85.64,22.03,114.11,51.16l22.28-58.39-49.45-43.71,66.24-4.67,26.42-61.57,26.42,61.57,66.23,4.67-49.48,43.71,22.28,58.39c28.47-29.13,67.51-46.22,114.11-51.16-17.56,26.31-31.45,53.4-42.38,84.4,25.73-20.96,57.57-33.54,94.2-36.14h0c-22.01,28.24-41.47,58.39-55.91,90.75ZM1379.49-225.71c36.8-15.07,81.36-11.6,119.44,12.87,5.91-35.42,25.12-66.87,52.51-85.86,3.73-2.62,7.7-.11,7.34,4.28-5.77,74.82,37.96,139.81,91.75,196.91-55.44,16.65-102.62-54.72-174.55-29.79-25.84-38.45-58.55-71.81-96.49-98.4Z"/>
    <path class="st1" d="M1216.38-330.71c-1.71-1.27-51.8-39.43-51.8-39.43,0,0-50.11,38.16-51.85,39.43-1.91,1.44-.94,3.86,1.55,3.45,4.42-.8,25.54-4.33,50.3-4.33s45.89,3.53,50.28,4.33c2.51.41,3.48-2.01,1.52-3.45Z"/>
    <path class="st1" d="M1128.28-79.69s-2.62.97-3.34,3.29c10.52,8.09,17.75,26.42,39.65,26.42s29.1-18.33,39.59-26.42c-.72-2.32-3.31-3.29-3.31-3.29,0,0-13.72,3.23-36.28,3.23s-36.3-3.23-36.3-3.23Z"/>
    <path class="st1" d="M1164.58-110.58h0c-6.07,0-7.43-2.29-11.57-2.26-3.95.03-11.62,3.12-13.28,6.05.11,1.46.64,2.76,1.68,3.92,8.89,1.35,12.87,6.29,23.16,6.29s14.27-4.94,23.14-6.29c1.05-1.16,1.6-2.46,1.68-3.92-1.66-2.93-9.3-6.02-13.25-6.05-4.14-.03-5.49,2.26-11.57,2.26Z"/>
  </g>
</svg>